<svg viewBox="0 0 512 512" xmlns="http://www.w3.org/2000/svg"><path d="M256 0C114.6 0 0 114.6 0 256s114.6 256 256 256 256-114.6 256-256S397.4 0 256 0zm0 480C137.7 480 48 390.3 48 272 48 153.7 137.7 64 256 64s208 89.7 208 208-89.7 208-208 208z" fill="#ffffff"/><path d="M176.4 256l-43.3-75 43.3-75h86.6l43.3 75-43.3 75h-86.6zm86.6-50l-28.9-50h-57.8l28.9 50 57.8 0zm0 100l-57.8 0-28.9-50 28.9-50 57.8 0 28.9 50-28.9 50z" fill="#FA7343"/><path d="M335.6 131l-86.6 150 86.6 150h86.6l-86.6-150 86.6-150h-86.6zm0 50l57.8 100-57.8 100h57.8l28.9-50-28.9-50 28.9-50h-57.8z" fill="#007396"/></svg>
