<svg viewBox="0 0 512 512" xmlns="http://www.w3.org/2000/svg"><rect width="512" height="512" fill="#ffffff"/><path d="M256 0C114.6 0 0 114.6 0 256s114.6 256 256 256 256-114.6 256-256S397.4 0 256 0zm0 480C137.7 480 48 390.3 48 272 48 153.7 137.7 64 256 64s208 89.7 208 208-89.7 208-208 208z" fill="#00DC82"/><path d="M206.8 155.4l-75.6 131.2 75.6 131.2h58.4l-75.6-131.2 75.6-131.2h-58.4zm98.4 0v262.4h50.4V155.4h-50.4zm-49.2 0l75.6 131.2-75.6 131.2h58.4l75.6-131.2-75.6-131.2h-58.4z" fill="#00DC82"/></svg>
