<svg viewBox="0 0 512 512" xmlns="http://www.w3.org/2000/svg"><path d="M256 0C114.6 0 0 114.6 0 256s114.6 256 256 256 256-114.6 256-256S397.4 0 256 0zm0 480C137.7 480 48 390.3 48 272 48 153.7 137.7 64 256 64s208 89.7 208 208-89.7 208-208 208z" fill="#ffffff"/><path d="M170 200c-15 0-27 12-27 27s12 27 27 27 27-12 27-27-12-27-27-27zm0 70c-24 0-43-19-43-43s19-43 43-43 43 19 43 43-19 43-43 43zm172-70c-15 0-27 12-27 27s12 27 27 27 27-12 27-27-12-27-27-27zm0 70c-24 0-43-19-43-43s19-43 43-43 43 19 43 43-19 43-43 43zm-86-130c-35 0-64 29-64 64s29 64 64 64 64-29 64-64-29-64-64-64zm0 112c-26 0-48-22-48-48s22-48 48-48 48 22 48 48-22 48-48 48z" fill="#6DB33F"/><path d="M256 144c-35 0-64 29-64 64s29 64 64 64 64-29 64-64-29-64-64-64zm0 112c-26 0-48-22-48-48s22-48 48-48 48 22 48 48-22 48-48 48z" fill="#68A063"/></svg>
