<svg viewBox="0 0 512 512" xmlns="http://www.w3.org/2000/svg"><path d="M256 0C114.6 0 0 114.6 0 256s114.6 256 256 256 256-114.6 256-256S397.4 0 256 0zm0 480C137.7 480 48 390.3 48 272 48 153.7 137.7 64 256 64s208 89.7 208 208-89.7 208-208 208z" fill="#70a5fd"/><path d="M256 120c-75.2 0-136 60.8-136 136s60.8 136 136 136 136-60.8 136-136-60.8-136-136-136zm0 240c-57.3 0-104-46.7-104-104s46.7-104 104-104 104 46.7 104 104-46.7 104-104 104zm43.1-156.4l-60.5 60.5-21.2-21.2c-4.7-4.7-12.3-4.7-17 0-4.7 4.7-4.7 12.3 0 17l29.2 29.2c4.7 4.7 12.3 4.7 17 0l68.5-68.5c4.7-4.7 4.7-12.3 0-17-4.7-4.7-12.3-4.7-17 0z" fill="#70a5fd"/></svg>